%TF.GenerationSoftware,KiCad,Pcbnew,6.0.10+dfsg-1~bpo11+1*%
%TF.CreationDate,2023-01-21T14:50:42+00:00*%
%TF.ProjectId,tp4056,74703430-3536-42e6-9b69-6361645f7063,rev?*%
%TF.SameCoordinates,Original*%
%TF.FileFunction,Soldermask,Top*%
%TF.FilePolarity,Negative*%
%FSLAX46Y46*%
G04 Gerber Fmt 4.6, Leading zero omitted, Abs format (unit mm)*
G04 Created by KiCad (PCBNEW 6.0.10+dfsg-1~bpo11+1) date 2023-01-21 14:50:42*
%MOMM*%
%LPD*%
G01*
G04 APERTURE LIST*
G04 Aperture macros list*
%AMRoundRect*
0 Rectangle with rounded corners*
0 $1 Rounding radius*
0 $2 $3 $4 $5 $6 $7 $8 $9 X,Y pos of 4 corners*
0 Add a 4 corners polygon primitive as box body*
4,1,4,$2,$3,$4,$5,$6,$7,$8,$9,$2,$3,0*
0 Add four circle primitives for the rounded corners*
1,1,$1+$1,$2,$3*
1,1,$1+$1,$4,$5*
1,1,$1+$1,$6,$7*
1,1,$1+$1,$8,$9*
0 Add four rect primitives between the rounded corners*
20,1,$1+$1,$2,$3,$4,$5,0*
20,1,$1+$1,$4,$5,$6,$7,0*
20,1,$1+$1,$6,$7,$8,$9,0*
20,1,$1+$1,$8,$9,$2,$3,0*%
G04 Aperture macros list end*
%ADD10RoundRect,0.160000X0.197500X0.160000X-0.197500X0.160000X-0.197500X-0.160000X0.197500X-0.160000X0*%
%ADD11C,0.600000*%
%ADD12O,0.600000X0.850000*%
%ADD13R,1.500000X0.520000*%
%ADD14R,1.500000X0.270000*%
%ADD15O,2.300000X1.300000*%
%ADD16O,2.600000X1.300000*%
%ADD17R,2.500000X2.500000*%
%ADD18RoundRect,0.160000X0.160000X-0.197500X0.160000X0.197500X-0.160000X0.197500X-0.160000X-0.197500X0*%
%ADD19RoundRect,0.150000X0.150000X-0.825000X0.150000X0.825000X-0.150000X0.825000X-0.150000X-0.825000X0*%
%ADD20R,3.000000X2.290000*%
%ADD21RoundRect,0.160000X-0.197500X-0.160000X0.197500X-0.160000X0.197500X0.160000X-0.197500X0.160000X0*%
%ADD22RoundRect,0.155000X-0.155000X0.212500X-0.155000X-0.212500X0.155000X-0.212500X0.155000X0.212500X0*%
%ADD23RoundRect,0.237500X-0.250000X-0.237500X0.250000X-0.237500X0.250000X0.237500X-0.250000X0.237500X0*%
%ADD24RoundRect,0.250000X0.325000X0.450000X-0.325000X0.450000X-0.325000X-0.450000X0.325000X-0.450000X0*%
%ADD25RoundRect,0.250000X0.337500X0.475000X-0.337500X0.475000X-0.337500X-0.475000X0.337500X-0.475000X0*%
%ADD26R,0.400000X1.560000*%
%ADD27RoundRect,0.155000X0.212500X0.155000X-0.212500X0.155000X-0.212500X-0.155000X0.212500X-0.155000X0*%
%ADD28RoundRect,0.237500X0.250000X0.237500X-0.250000X0.237500X-0.250000X-0.237500X0.250000X-0.237500X0*%
%ADD29R,0.650000X1.560000*%
G04 APERTURE END LIST*
D10*
%TO.C,R9*%
X135055000Y-88130000D03*
X133860000Y-88130000D03*
%TD*%
D11*
%TO.C,P1*%
X133340000Y-91480000D03*
D12*
X133340000Y-97480000D03*
D13*
X134692000Y-91380000D03*
X134692000Y-92130000D03*
D14*
X134692000Y-96230000D03*
D13*
X134692000Y-96830000D03*
X134692000Y-97580000D03*
D14*
X134692000Y-93210000D03*
D15*
X134065000Y-90160000D03*
D16*
X130240000Y-98800000D03*
D15*
X134065000Y-98800000D03*
D16*
X130240000Y-90160000D03*
%TD*%
D17*
%TO.C,J5*%
X154975000Y-100644840D03*
%TD*%
D18*
%TO.C,R5*%
X151890000Y-88370000D03*
X151890000Y-87175000D03*
%TD*%
D19*
%TO.C,U1*%
X141205000Y-96995000D03*
X142475000Y-96995000D03*
X143745000Y-96995000D03*
X145015000Y-96995000D03*
X145015000Y-92045000D03*
X143745000Y-92045000D03*
X142475000Y-92045000D03*
X141205000Y-92045000D03*
D20*
X143110000Y-94520000D03*
%TD*%
D21*
%TO.C,R2*%
X136365000Y-87250000D03*
X137560000Y-87250000D03*
%TD*%
D17*
%TO.C,J4*%
X154970000Y-96859840D03*
%TD*%
D22*
%TO.C,C2*%
X143830000Y-88075000D03*
X143830000Y-89210000D03*
%TD*%
D23*
%TO.C,R8*%
X136715000Y-96070000D03*
X138540000Y-96070000D03*
%TD*%
D24*
%TO.C,D2*%
X131995000Y-87610000D03*
X129945000Y-87610000D03*
%TD*%
D25*
%TO.C,C1*%
X146830000Y-100710000D03*
X144755000Y-100710000D03*
%TD*%
D21*
%TO.C,R1*%
X135725000Y-101020000D03*
X136920000Y-101020000D03*
%TD*%
D17*
%TO.C,J7*%
X154980000Y-91899840D03*
%TD*%
D26*
%TO.C,U3*%
X150290000Y-93443000D03*
X149640000Y-93443000D03*
X148980000Y-93443000D03*
X148330000Y-93443000D03*
X148330000Y-98857000D03*
X148980000Y-98857000D03*
X149640000Y-98857000D03*
X150290000Y-98857000D03*
%TD*%
D10*
%TO.C,R6*%
X150025000Y-101410000D03*
X148830000Y-101410000D03*
%TD*%
D27*
%TO.C,C3*%
X139807500Y-89380000D03*
X138672500Y-89380000D03*
%TD*%
D23*
%TO.C,R7*%
X136657500Y-93020000D03*
X138482500Y-93020000D03*
%TD*%
D17*
%TO.C,J6*%
X154975000Y-88154840D03*
%TD*%
D24*
%TO.C,D1*%
X131860000Y-101190000D03*
X129810000Y-101190000D03*
%TD*%
D28*
%TO.C,R3*%
X142440000Y-100630000D03*
X140615000Y-100630000D03*
%TD*%
D29*
%TO.C,U2*%
X148240000Y-90900000D03*
X149190000Y-90900000D03*
X150140000Y-90900000D03*
X150140000Y-88200000D03*
X149190000Y-88200000D03*
X148240000Y-88200000D03*
%TD*%
M02*
