%TF.GenerationSoftware,KiCad,Pcbnew,6.0.10+dfsg-1~bpo11+1*%
%TF.CreationDate,2023-01-21T14:50:41+00:00*%
%TF.ProjectId,tp4056,74703430-3536-42e6-9b69-6361645f7063,rev?*%
%TF.SameCoordinates,Original*%
%TF.FileFunction,Copper,L1,Top*%
%TF.FilePolarity,Positive*%
%FSLAX46Y46*%
G04 Gerber Fmt 4.6, Leading zero omitted, Abs format (unit mm)*
G04 Created by KiCad (PCBNEW 6.0.10+dfsg-1~bpo11+1) date 2023-01-21 14:50:41*
%MOMM*%
%LPD*%
G01*
G04 APERTURE LIST*
G04 Aperture macros list*
%AMRoundRect*
0 Rectangle with rounded corners*
0 $1 Rounding radius*
0 $2 $3 $4 $5 $6 $7 $8 $9 X,Y pos of 4 corners*
0 Add a 4 corners polygon primitive as box body*
4,1,4,$2,$3,$4,$5,$6,$7,$8,$9,$2,$3,0*
0 Add four circle primitives for the rounded corners*
1,1,$1+$1,$2,$3*
1,1,$1+$1,$4,$5*
1,1,$1+$1,$6,$7*
1,1,$1+$1,$8,$9*
0 Add four rect primitives between the rounded corners*
20,1,$1+$1,$2,$3,$4,$5,0*
20,1,$1+$1,$4,$5,$6,$7,0*
20,1,$1+$1,$6,$7,$8,$9,0*
20,1,$1+$1,$8,$9,$2,$3,0*%
G04 Aperture macros list end*
%TA.AperFunction,SMDPad,CuDef*%
%ADD10RoundRect,0.160000X0.197500X0.160000X-0.197500X0.160000X-0.197500X-0.160000X0.197500X-0.160000X0*%
%TD*%
%TA.AperFunction,SMDPad,CuDef*%
%ADD11R,1.500000X0.520000*%
%TD*%
%TA.AperFunction,SMDPad,CuDef*%
%ADD12R,1.500000X0.270000*%
%TD*%
%TA.AperFunction,ComponentPad*%
%ADD13O,2.300000X1.300000*%
%TD*%
%TA.AperFunction,ComponentPad*%
%ADD14O,2.600000X1.300000*%
%TD*%
%TA.AperFunction,ComponentPad*%
%ADD15R,2.500000X2.500000*%
%TD*%
%TA.AperFunction,SMDPad,CuDef*%
%ADD16RoundRect,0.160000X0.160000X-0.197500X0.160000X0.197500X-0.160000X0.197500X-0.160000X-0.197500X0*%
%TD*%
%TA.AperFunction,SMDPad,CuDef*%
%ADD17RoundRect,0.150000X0.150000X-0.825000X0.150000X0.825000X-0.150000X0.825000X-0.150000X-0.825000X0*%
%TD*%
%TA.AperFunction,SMDPad,CuDef*%
%ADD18R,3.000000X2.290000*%
%TD*%
%TA.AperFunction,SMDPad,CuDef*%
%ADD19RoundRect,0.160000X-0.197500X-0.160000X0.197500X-0.160000X0.197500X0.160000X-0.197500X0.160000X0*%
%TD*%
%TA.AperFunction,SMDPad,CuDef*%
%ADD20RoundRect,0.155000X-0.155000X0.212500X-0.155000X-0.212500X0.155000X-0.212500X0.155000X0.212500X0*%
%TD*%
%TA.AperFunction,SMDPad,CuDef*%
%ADD21RoundRect,0.237500X-0.250000X-0.237500X0.250000X-0.237500X0.250000X0.237500X-0.250000X0.237500X0*%
%TD*%
%TA.AperFunction,SMDPad,CuDef*%
%ADD22RoundRect,0.250000X0.325000X0.450000X-0.325000X0.450000X-0.325000X-0.450000X0.325000X-0.450000X0*%
%TD*%
%TA.AperFunction,SMDPad,CuDef*%
%ADD23RoundRect,0.250000X0.337500X0.475000X-0.337500X0.475000X-0.337500X-0.475000X0.337500X-0.475000X0*%
%TD*%
%TA.AperFunction,SMDPad,CuDef*%
%ADD24R,0.400000X1.560000*%
%TD*%
%TA.AperFunction,SMDPad,CuDef*%
%ADD25RoundRect,0.155000X0.212500X0.155000X-0.212500X0.155000X-0.212500X-0.155000X0.212500X-0.155000X0*%
%TD*%
%TA.AperFunction,SMDPad,CuDef*%
%ADD26RoundRect,0.237500X0.250000X0.237500X-0.250000X0.237500X-0.250000X-0.237500X0.250000X-0.237500X0*%
%TD*%
%TA.AperFunction,SMDPad,CuDef*%
%ADD27R,0.650000X1.560000*%
%TD*%
%TA.AperFunction,ViaPad*%
%ADD28C,0.800000*%
%TD*%
%TA.AperFunction,Conductor*%
%ADD29C,0.200000*%
%TD*%
%TA.AperFunction,Conductor*%
%ADD30C,0.250000*%
%TD*%
%TA.AperFunction,Conductor*%
%ADD31C,1.000000*%
%TD*%
G04 APERTURE END LIST*
D10*
%TO.P,R9,1*%
%TO.N,VIN*%
X135055000Y-88130000D03*
%TO.P,R9,2*%
%TO.N,Net-(D1-Pad2)*%
X133860000Y-88130000D03*
%TD*%
D11*
%TO.P,P1,A1,GND*%
%TO.N,GND*%
X134692000Y-91380000D03*
%TO.P,P1,A4,VBUS*%
%TO.N,VIN*%
X134692000Y-92130000D03*
D12*
%TO.P,P1,A8,SBU1*%
%TO.N,Net-(R8-Pad1)*%
X134692000Y-96230000D03*
D11*
%TO.P,P1,A9,VBUS*%
%TO.N,VIN*%
X134692000Y-96830000D03*
%TO.P,P1,A12,GND*%
%TO.N,GND*%
X134692000Y-97580000D03*
D12*
%TO.P,P1,B8,SBU2*%
%TO.N,Net-(P1-PadB8)*%
X134692000Y-93210000D03*
D13*
%TO.P,P1,S1,SHIELD*%
%TO.N,GND*%
X134065000Y-90160000D03*
D14*
X130240000Y-98800000D03*
D13*
X134065000Y-98800000D03*
D14*
X130240000Y-90160000D03*
%TD*%
D15*
%TO.P,J5,1,Pin_1*%
%TO.N,GND*%
X154975000Y-100644840D03*
%TD*%
D16*
%TO.P,R5,1*%
%TO.N,BAT+*%
X151890000Y-88370000D03*
%TO.P,R5,2*%
%TO.N,Net-(C2-Pad1)*%
X151890000Y-87175000D03*
%TD*%
D17*
%TO.P,U1,1,TEMP*%
%TO.N,GND*%
X141205000Y-96995000D03*
%TO.P,U1,2,PROG*%
%TO.N,Net-(R3-Pad1)*%
X142475000Y-96995000D03*
%TO.P,U1,3,GND*%
%TO.N,GND*%
X143745000Y-96995000D03*
%TO.P,U1,4,VCC*%
%TO.N,VIN*%
X145015000Y-96995000D03*
%TO.P,U1,5,BAT*%
%TO.N,BAT+*%
X145015000Y-92045000D03*
%TO.P,U1,6,~{STDBY}*%
%TO.N,Net-(R2-Pad2)*%
X143745000Y-92045000D03*
%TO.P,U1,7,~{CHRG}*%
%TO.N,Net-(R1-Pad2)*%
X142475000Y-92045000D03*
%TO.P,U1,8,CE*%
%TO.N,VIN*%
X141205000Y-92045000D03*
D18*
%TO.P,U1,9,PP*%
%TO.N,GND*%
X143110000Y-94520000D03*
%TD*%
D19*
%TO.P,R2,1*%
%TO.N,Net-(D2-Pad1)*%
X136365000Y-87250000D03*
%TO.P,R2,2*%
%TO.N,Net-(R2-Pad2)*%
X137560000Y-87250000D03*
%TD*%
D15*
%TO.P,J4,1,Pin_1*%
%TO.N,BAT-*%
X154970000Y-96859840D03*
%TD*%
D20*
%TO.P,C2,1*%
%TO.N,Net-(C2-Pad1)*%
X143830000Y-88075000D03*
%TO.P,C2,2*%
%TO.N,BAT-*%
X143830000Y-89210000D03*
%TD*%
D21*
%TO.P,R8,1*%
%TO.N,Net-(R8-Pad1)*%
X136715000Y-96070000D03*
%TO.P,R8,2*%
%TO.N,GND*%
X138540000Y-96070000D03*
%TD*%
D22*
%TO.P,D2,1,K*%
%TO.N,Net-(D2-Pad1)*%
X131995000Y-87610000D03*
%TO.P,D2,2,A*%
%TO.N,Net-(D1-Pad2)*%
X129945000Y-87610000D03*
%TD*%
D23*
%TO.P,C1,1*%
%TO.N,BAT+*%
X146830000Y-100710000D03*
%TO.P,C1,2*%
%TO.N,GND*%
X144755000Y-100710000D03*
%TD*%
D19*
%TO.P,R1,1*%
%TO.N,Net-(D1-Pad1)*%
X135725000Y-101020000D03*
%TO.P,R1,2*%
%TO.N,Net-(R1-Pad2)*%
X136920000Y-101020000D03*
%TD*%
D15*
%TO.P,J7,1,Pin_1*%
%TO.N,BAT+*%
X154980000Y-91899840D03*
%TD*%
D24*
%TO.P,U3,1,-IN*%
%TO.N,unconnected-(U3-Pad1)*%
X150290000Y-93443000D03*
%TO.P,U3,2,GND*%
%TO.N,BAT-*%
X149640000Y-93443000D03*
%TO.P,U3,3,Vref2*%
X148980000Y-93443000D03*
%TO.P,U3,4,OUT*%
%TO.N,/G1*%
X148330000Y-93443000D03*
%TO.P,U3,5,OUT*%
%TO.N,Net-(U2-Pad3)*%
X148330000Y-98857000D03*
%TO.P,U3,6,V+*%
%TO.N,GND*%
X148980000Y-98857000D03*
%TO.P,U3,7,Vref1*%
X149640000Y-98857000D03*
%TO.P,U3,8,+IN*%
%TO.N,unconnected-(U3-Pad8)*%
X150290000Y-98857000D03*
%TD*%
D10*
%TO.P,R6,1*%
%TO.N,/OC*%
X150025000Y-101410000D03*
%TO.P,R6,2*%
%TO.N,GND*%
X148830000Y-101410000D03*
%TD*%
D25*
%TO.P,C3,1*%
%TO.N,VIN*%
X139807500Y-89380000D03*
%TO.P,C3,2*%
%TO.N,GND*%
X138672500Y-89380000D03*
%TD*%
D21*
%TO.P,R7,1*%
%TO.N,Net-(P1-PadB8)*%
X136657500Y-93020000D03*
%TO.P,R7,2*%
%TO.N,GND*%
X138482500Y-93020000D03*
%TD*%
D15*
%TO.P,J6,1,Pin_1*%
%TO.N,BAT+*%
X154975000Y-88154840D03*
%TD*%
D22*
%TO.P,D1,1,K*%
%TO.N,Net-(D1-Pad1)*%
X131860000Y-101190000D03*
%TO.P,D1,2,A*%
%TO.N,Net-(D1-Pad2)*%
X129810000Y-101190000D03*
%TD*%
D26*
%TO.P,R3,1*%
%TO.N,Net-(R3-Pad1)*%
X142440000Y-100630000D03*
%TO.P,R3,2*%
%TO.N,GND*%
X140615000Y-100630000D03*
%TD*%
D27*
%TO.P,U2,1,OD*%
%TO.N,/G1*%
X148240000Y-90900000D03*
%TO.P,U2,2,CS*%
%TO.N,/OC*%
X149190000Y-90900000D03*
%TO.P,U2,3,OC*%
%TO.N,Net-(U2-Pad3)*%
X150140000Y-90900000D03*
%TO.P,U2,4,TD*%
%TO.N,unconnected-(U2-Pad4)*%
X150140000Y-88200000D03*
%TO.P,U2,5,VCC*%
%TO.N,Net-(C2-Pad1)*%
X149190000Y-88200000D03*
%TO.P,U2,6,GND*%
%TO.N,BAT-*%
X148240000Y-88200000D03*
%TD*%
D28*
%TO.N,Net-(U2-Pad3)*%
X148320000Y-96690000D03*
%TO.N,/OC*%
X146930000Y-91780000D03*
X151050000Y-100830000D03*
%TO.N,VIN*%
X141410000Y-88160000D03*
X145030000Y-98900000D03*
%TO.N,BAT+*%
X145830000Y-90260000D03*
X151834622Y-89575378D03*
%TO.N,Net-(R1-Pad2)*%
X139090000Y-98070000D03*
X141560000Y-90290000D03*
%TO.N,Net-(U2-Pad3)*%
X151343500Y-91470000D03*
%TD*%
D29*
%TO.N,BAT+*%
X151890000Y-88370000D02*
X152105160Y-88154840D01*
X152105160Y-88154840D02*
X154975000Y-88154840D01*
%TO.N,BAT-*%
X154970000Y-96859840D02*
X154959840Y-96859840D01*
X154959840Y-96859840D02*
X152043000Y-93943000D01*
X152043000Y-93943000D02*
X152043000Y-92363000D01*
D30*
%TO.N,GND*%
X148980000Y-98857000D02*
X149640000Y-98857000D01*
X149920000Y-96700000D02*
X150860000Y-96700000D01*
X150860000Y-96700000D02*
X150930000Y-96700000D01*
X149640000Y-98857000D02*
X149640000Y-97827000D01*
X149640000Y-97827000D02*
X150767000Y-96700000D01*
X150767000Y-96700000D02*
X150860000Y-96700000D01*
X148980000Y-98857000D02*
X148980000Y-97640000D01*
X154874840Y-100644840D02*
X154975000Y-100644840D01*
X148980000Y-97640000D02*
X149920000Y-96700000D01*
X150930000Y-96700000D02*
X154874840Y-100644840D01*
D31*
X154975000Y-100644840D02*
X154614840Y-100644840D01*
D30*
%TO.N,Net-(U2-Pad3)*%
X148330000Y-98857000D02*
X148330000Y-96700000D01*
X148330000Y-96700000D02*
X148320000Y-96690000D01*
%TO.N,/OC*%
X146930000Y-91780000D02*
X146930000Y-90230000D01*
X149190000Y-90090000D02*
X149190000Y-90900000D01*
X146930000Y-90230000D02*
X147365000Y-89795000D01*
X147365000Y-89795000D02*
X148895000Y-89795000D01*
X148895000Y-89795000D02*
X149190000Y-90090000D01*
X150025000Y-101410000D02*
X150470000Y-101410000D01*
X150470000Y-101410000D02*
X151050000Y-100830000D01*
D29*
%TO.N,BAT-*%
X149640000Y-93443000D02*
X149640000Y-92463000D01*
X149640000Y-92463000D02*
X149740000Y-92363000D01*
X149740000Y-92363000D02*
X150097000Y-92363000D01*
D30*
%TO.N,Net-(C2-Pad1)*%
X149480000Y-87020000D02*
X151735000Y-87020000D01*
X149190000Y-88200000D02*
X149190000Y-87310000D01*
X149190000Y-87310000D02*
X149480000Y-87020000D01*
X143830000Y-88075000D02*
X145125000Y-86780000D01*
X145125000Y-86780000D02*
X148575000Y-86780000D01*
X148575000Y-86780000D02*
X149190000Y-87395000D01*
X149190000Y-87395000D02*
X149190000Y-88200000D01*
%TO.N,VIN*%
X141410000Y-88160000D02*
X140835000Y-88735000D01*
X140835000Y-88735000D02*
X140835000Y-91675000D01*
X140835000Y-91675000D02*
X141205000Y-92045000D01*
%TO.N,Net-(R2-Pad2)*%
X137560000Y-87250000D02*
X137800000Y-87010000D01*
X137800000Y-87010000D02*
X142000000Y-87010000D01*
X143745000Y-91275000D02*
X143745000Y-92045000D01*
X142000000Y-87010000D02*
X142890000Y-87900000D01*
X142890000Y-87900000D02*
X142890000Y-90420000D01*
X142890000Y-90420000D02*
X143745000Y-91275000D01*
%TO.N,Net-(D1-Pad2)*%
X131950000Y-89230000D02*
X131950000Y-91770000D01*
X132190000Y-97870000D02*
X132190000Y-99271827D01*
X132190000Y-99271827D02*
X130271827Y-101190000D01*
X131950000Y-91770000D02*
X129710000Y-94010000D01*
X129710000Y-94010000D02*
X129710000Y-95390000D01*
X129710000Y-95390000D02*
X132190000Y-97870000D01*
X130271827Y-101190000D02*
X129810000Y-101190000D01*
X131950000Y-89230000D02*
X131565000Y-89230000D01*
X132180000Y-89230000D02*
X131950000Y-89230000D01*
X133280000Y-88130000D02*
X132180000Y-89230000D01*
X133860000Y-88130000D02*
X133280000Y-88130000D01*
X131565000Y-89230000D02*
X129945000Y-87610000D01*
%TO.N,Net-(D2-Pad1)*%
X132820000Y-87610000D02*
X133570000Y-86860000D01*
X131995000Y-87610000D02*
X132820000Y-87610000D01*
X133570000Y-86860000D02*
X135975000Y-86860000D01*
X135975000Y-86860000D02*
X136365000Y-87250000D01*
%TO.N,VIN*%
X132860336Y-89340336D02*
X133015673Y-89185000D01*
X132860336Y-89340336D02*
X132430000Y-89770672D01*
X132430000Y-90620000D02*
X132430000Y-93110000D01*
X132430000Y-89770672D02*
X132430000Y-90620000D01*
X133015673Y-89185000D02*
X135525000Y-89185000D01*
X135525000Y-89185000D02*
X137485000Y-89185000D01*
X135055000Y-88130000D02*
X135055000Y-88715000D01*
X135055000Y-88715000D02*
X135525000Y-89185000D01*
X139172500Y-88745000D02*
X137925000Y-88745000D01*
X137485000Y-89185000D02*
X137925000Y-88745000D01*
%TO.N,Net-(P1-PadB8)*%
X134692000Y-93210000D02*
X136467500Y-93210000D01*
X136467500Y-93210000D02*
X136657500Y-93020000D01*
%TO.N,Net-(R8-Pad1)*%
X134692000Y-96230000D02*
X136555000Y-96230000D01*
X136555000Y-96230000D02*
X136715000Y-96070000D01*
%TO.N,VIN*%
X145015000Y-98885000D02*
X145030000Y-98900000D01*
X145015000Y-96995000D02*
X145015000Y-98885000D01*
%TO.N,GND*%
X143110000Y-94520000D02*
X143110000Y-96360000D01*
X143110000Y-96360000D02*
X143745000Y-96995000D01*
X143110000Y-94520000D02*
X141205000Y-96425000D01*
X141205000Y-96425000D02*
X141205000Y-96995000D01*
D29*
%TO.N,BAT+*%
X145015000Y-92045000D02*
X145830000Y-91230000D01*
D31*
X154975000Y-88165000D02*
X154975000Y-91905000D01*
D29*
X146045000Y-100335000D02*
X146045000Y-93075000D01*
X146045000Y-93075000D02*
X145015000Y-92045000D01*
X146045000Y-100335000D02*
X146045000Y-100445000D01*
X145830000Y-91230000D02*
X145830000Y-90260000D01*
X146045000Y-100445000D02*
X146310000Y-100710000D01*
D31*
X154975000Y-91905000D02*
X154980000Y-91910000D01*
D29*
X151834622Y-89575378D02*
X151834622Y-88425378D01*
X151834622Y-88425378D02*
X151890000Y-88370000D01*
X146310000Y-100710000D02*
X146830000Y-100710000D01*
D30*
%TO.N,Net-(R1-Pad2)*%
X141560000Y-90290000D02*
X142475000Y-91205000D01*
X137235000Y-99925000D02*
X139090000Y-98070000D01*
X142475000Y-91205000D02*
X142475000Y-92045000D01*
X137235000Y-101020000D02*
X137235000Y-99925000D01*
%TO.N,Net-(D1-Pad1)*%
X135350000Y-101080000D02*
X135410000Y-101020000D01*
X132772500Y-101080000D02*
X135350000Y-101080000D01*
X131860000Y-101190000D02*
X132662500Y-101190000D01*
X132662500Y-101190000D02*
X132772500Y-101080000D01*
%TO.N,GND*%
X142970000Y-101800000D02*
X143745000Y-101025000D01*
X149640000Y-100070000D02*
X149640000Y-98857000D01*
X136461720Y-91771720D02*
X136461720Y-91679457D01*
X140615000Y-100630000D02*
X140615000Y-97585000D01*
X138672500Y-89380000D02*
X138672500Y-91122500D01*
X139980000Y-92430000D02*
X139980000Y-96030000D01*
X136070000Y-91380000D02*
X136461720Y-91771720D01*
X137464220Y-91771720D02*
X138662500Y-92970000D01*
X147460000Y-102050000D02*
X145000000Y-102050000D01*
X148830000Y-101310000D02*
X149025000Y-101115000D01*
X136461720Y-91771720D02*
X137361720Y-91771720D01*
X148980000Y-98857000D02*
X148980000Y-101070000D01*
X148100000Y-101410000D02*
X147460000Y-102050000D01*
X149395000Y-100315000D02*
X149640000Y-100070000D01*
X148980000Y-101070000D02*
X149025000Y-101115000D01*
X134060000Y-97955000D02*
X134435000Y-97580000D01*
X140615000Y-100630000D02*
X140890000Y-100630000D01*
X140615000Y-97585000D02*
X141205000Y-96995000D01*
X134060000Y-91005000D02*
X134435000Y-91380000D01*
X136461720Y-91679457D02*
X138672500Y-89468677D01*
X143745000Y-96995000D02*
X143745000Y-99700000D01*
X139980000Y-96030000D02*
X140945000Y-96995000D01*
X143745000Y-101025000D02*
X143745000Y-99700000D01*
X145000000Y-102050000D02*
X144755000Y-101805000D01*
X140890000Y-100630000D02*
X142060000Y-101800000D01*
X134435000Y-91380000D02*
X136070000Y-91380000D01*
X137030000Y-97580000D02*
X138540000Y-96070000D01*
X148830000Y-101410000D02*
X148100000Y-101410000D01*
X137361720Y-91771720D02*
X137464220Y-91771720D01*
X148830000Y-101410000D02*
X148830000Y-101310000D01*
X138540000Y-93077500D02*
X138482500Y-93020000D01*
X142060000Y-101800000D02*
X142970000Y-101800000D01*
X149395000Y-100745000D02*
X149395000Y-100315000D01*
X140945000Y-96995000D02*
X141205000Y-96995000D01*
X143745000Y-99700000D02*
X144755000Y-100710000D01*
X138540000Y-96070000D02*
X138540000Y-93077500D01*
X144755000Y-101805000D02*
X144755000Y-100710000D01*
X138672500Y-91122500D02*
X139980000Y-92430000D01*
X134435000Y-97580000D02*
X137030000Y-97580000D01*
X149025000Y-101115000D02*
X149395000Y-100745000D01*
X138672500Y-89468677D02*
X138672500Y-89380000D01*
X134060000Y-98800000D02*
X134060000Y-97955000D01*
X134060000Y-90160000D02*
X134060000Y-91005000D01*
%TO.N,VIN*%
X132215000Y-95985000D02*
X132910000Y-96680000D01*
X131985000Y-93555000D02*
X131720000Y-93820000D01*
X145015000Y-96425000D02*
X145015000Y-96995000D01*
X131720000Y-93820000D02*
X131720000Y-95490000D01*
X139807500Y-89380000D02*
X139172500Y-88745000D01*
X132910000Y-96680000D02*
X134285000Y-96680000D01*
X141205000Y-92045000D02*
X141205000Y-92615000D01*
X139807500Y-90647500D02*
X141205000Y-92045000D01*
X133384999Y-92155001D02*
X132430000Y-93110000D01*
X134285000Y-96680000D02*
X134435000Y-96830000D01*
X134409999Y-92155001D02*
X133384999Y-92155001D01*
X134435000Y-92130000D02*
X134409999Y-92155001D01*
X139807500Y-89380000D02*
X139807500Y-90647500D01*
X131720000Y-95490000D02*
X132215000Y-95985000D01*
X132430000Y-93110000D02*
X131985000Y-93555000D01*
%TO.N,Net-(R3-Pad1)*%
X142327500Y-97142500D02*
X142475000Y-96995000D01*
X142440000Y-100630000D02*
X142327500Y-100517500D01*
X142327500Y-100517500D02*
X142327500Y-97142500D01*
D29*
%TO.N,BAT-*%
X148240000Y-88200000D02*
X148240000Y-89180000D01*
X151897000Y-92363000D02*
X152043000Y-92363000D01*
X151655000Y-90395000D02*
X152043000Y-90783000D01*
X148430000Y-89370000D02*
X150640000Y-89370000D01*
X144840000Y-88200000D02*
X148240000Y-88200000D01*
X149480000Y-92363000D02*
X151897000Y-92363000D01*
X150640000Y-89370000D02*
X151655000Y-90385000D01*
X148240000Y-89180000D02*
X148430000Y-89370000D01*
X152043000Y-90783000D02*
X152043000Y-92363000D01*
X148980000Y-93443000D02*
X148980000Y-92863000D01*
X148980000Y-93443000D02*
X149640000Y-93443000D01*
X143830000Y-89210000D02*
X144840000Y-88200000D01*
X148980000Y-92863000D02*
X149480000Y-92363000D01*
X151655000Y-90385000D02*
X151655000Y-90395000D01*
D30*
%TO.N,/G1*%
X148330000Y-90990000D02*
X148240000Y-90900000D01*
X148330000Y-93443000D02*
X148330000Y-90990000D01*
%TO.N,Net-(U2-Pad3)*%
X151343500Y-91470000D02*
X150710000Y-91470000D01*
X150710000Y-91470000D02*
X150140000Y-90900000D01*
%TO.N,Net-(C2-Pad1)*%
X151735000Y-87020000D02*
X151890000Y-87175000D01*
%TO.N,Net-(P1-PadB8)*%
X136367500Y-92730000D02*
X136657500Y-93020000D01*
%TD*%
M02*
