M48
METRIC,TZ
T1C0.400
T2C0.600
T3C1.500
%
G90
G05
T1
X139090Y-98070
X141410Y-88160
X141560Y-90290
X145030Y-98900
X145830Y-90260
X146930Y-91780
X148320Y-96690
X151050Y-100830
X151344Y-91470
X151835Y-89575
T3
X154970Y-96860
X154975Y-88155
X154975Y-100645
X154980Y-91900
T2
G00X130890Y-90160
M15
G01X129590Y-90160
M16
G05
G00X130890Y-98800
M15
G01X129590Y-98800
M16
G05
G00X134565Y-90160
M15
G01X133565Y-90160
M16
G05
G00X134565Y-98800
M15
G01X133565Y-98800
M16
G05
T0
M30
