%TF.GenerationSoftware,KiCad,Pcbnew,6.0.10+dfsg-1~bpo11+1*%
%TF.CreationDate,2023-01-21T14:50:41+00:00*%
%TF.ProjectId,tp4056,74703430-3536-42e6-9b69-6361645f7063,rev?*%
%TF.SameCoordinates,Original*%
%TF.FileFunction,Legend,Top*%
%TF.FilePolarity,Positive*%
%FSLAX46Y46*%
G04 Gerber Fmt 4.6, Leading zero omitted, Abs format (unit mm)*
G04 Created by KiCad (PCBNEW 6.0.10+dfsg-1~bpo11+1) date 2023-01-21 14:50:41*
%MOMM*%
%LPD*%
G01*
G04 APERTURE LIST*
%ADD10C,0.150000*%
%ADD11C,0.120000*%
G04 APERTURE END LIST*
D10*
%TO.C,R9*%
X134343333Y-87532380D02*
X134010000Y-87056190D01*
X133771904Y-87532380D02*
X133771904Y-86532380D01*
X134152857Y-86532380D01*
X134248095Y-86580000D01*
X134295714Y-86627619D01*
X134343333Y-86722857D01*
X134343333Y-86865714D01*
X134295714Y-86960952D01*
X134248095Y-87008571D01*
X134152857Y-87056190D01*
X133771904Y-87056190D01*
X134819523Y-87532380D02*
X135010000Y-87532380D01*
X135105238Y-87484761D01*
X135152857Y-87437142D01*
X135248095Y-87294285D01*
X135295714Y-87103809D01*
X135295714Y-86722857D01*
X135248095Y-86627619D01*
X135200476Y-86580000D01*
X135105238Y-86532380D01*
X134914761Y-86532380D01*
X134819523Y-86580000D01*
X134771904Y-86627619D01*
X134724285Y-86722857D01*
X134724285Y-86960952D01*
X134771904Y-87056190D01*
X134819523Y-87103809D01*
X134914761Y-87151428D01*
X135105238Y-87151428D01*
X135200476Y-87103809D01*
X135248095Y-87056190D01*
X135295714Y-86960952D01*
%TO.C,P1*%
X136842380Y-95218095D02*
X135842380Y-95218095D01*
X135842380Y-94837142D01*
X135890000Y-94741904D01*
X135937619Y-94694285D01*
X136032857Y-94646666D01*
X136175714Y-94646666D01*
X136270952Y-94694285D01*
X136318571Y-94741904D01*
X136366190Y-94837142D01*
X136366190Y-95218095D01*
X136842380Y-93694285D02*
X136842380Y-94265714D01*
X136842380Y-93980000D02*
X135842380Y-93980000D01*
X135985238Y-94075238D01*
X136080476Y-94170476D01*
X136128095Y-94265714D01*
%TO.C,R5*%
X153512380Y-88036666D02*
X153036190Y-88370000D01*
X153512380Y-88608095D02*
X152512380Y-88608095D01*
X152512380Y-88227142D01*
X152560000Y-88131904D01*
X152607619Y-88084285D01*
X152702857Y-88036666D01*
X152845714Y-88036666D01*
X152940952Y-88084285D01*
X152988571Y-88131904D01*
X153036190Y-88227142D01*
X153036190Y-88608095D01*
X152512380Y-87131904D02*
X152512380Y-87608095D01*
X152988571Y-87655714D01*
X152940952Y-87608095D01*
X152893333Y-87512857D01*
X152893333Y-87274761D01*
X152940952Y-87179523D01*
X152988571Y-87131904D01*
X153083809Y-87084285D01*
X153321904Y-87084285D01*
X153417142Y-87131904D01*
X153464761Y-87179523D01*
X153512380Y-87274761D01*
X153512380Y-87512857D01*
X153464761Y-87608095D01*
X153417142Y-87655714D01*
%TO.C,U1*%
X139162380Y-95281904D02*
X139971904Y-95281904D01*
X140067142Y-95234285D01*
X140114761Y-95186666D01*
X140162380Y-95091428D01*
X140162380Y-94900952D01*
X140114761Y-94805714D01*
X140067142Y-94758095D01*
X139971904Y-94710476D01*
X139162380Y-94710476D01*
X140162380Y-93710476D02*
X140162380Y-94281904D01*
X140162380Y-93996190D02*
X139162380Y-93996190D01*
X139305238Y-94091428D01*
X139400476Y-94186666D01*
X139448095Y-94281904D01*
%TO.C,R2*%
X136873333Y-88922380D02*
X136540000Y-88446190D01*
X136301904Y-88922380D02*
X136301904Y-87922380D01*
X136682857Y-87922380D01*
X136778095Y-87970000D01*
X136825714Y-88017619D01*
X136873333Y-88112857D01*
X136873333Y-88255714D01*
X136825714Y-88350952D01*
X136778095Y-88398571D01*
X136682857Y-88446190D01*
X136301904Y-88446190D01*
X137254285Y-88017619D02*
X137301904Y-87970000D01*
X137397142Y-87922380D01*
X137635238Y-87922380D01*
X137730476Y-87970000D01*
X137778095Y-88017619D01*
X137825714Y-88112857D01*
X137825714Y-88208095D01*
X137778095Y-88350952D01*
X137206666Y-88922380D01*
X137825714Y-88922380D01*
%TO.C,C2*%
X142867142Y-88726666D02*
X142914761Y-88774285D01*
X142962380Y-88917142D01*
X142962380Y-89012380D01*
X142914761Y-89155238D01*
X142819523Y-89250476D01*
X142724285Y-89298095D01*
X142533809Y-89345714D01*
X142390952Y-89345714D01*
X142200476Y-89298095D01*
X142105238Y-89250476D01*
X142010000Y-89155238D01*
X141962380Y-89012380D01*
X141962380Y-88917142D01*
X142010000Y-88774285D01*
X142057619Y-88726666D01*
X142057619Y-88345714D02*
X142010000Y-88298095D01*
X141962380Y-88202857D01*
X141962380Y-87964761D01*
X142010000Y-87869523D01*
X142057619Y-87821904D01*
X142152857Y-87774285D01*
X142248095Y-87774285D01*
X142390952Y-87821904D01*
X142962380Y-88393333D01*
X142962380Y-87774285D01*
%TO.C,R8*%
X136759047Y-97052380D02*
X136282857Y-97052380D01*
X136235238Y-97528571D01*
X136282857Y-97480952D01*
X136378095Y-97433333D01*
X136616190Y-97433333D01*
X136711428Y-97480952D01*
X136759047Y-97528571D01*
X136806666Y-97623809D01*
X136806666Y-97861904D01*
X136759047Y-97957142D01*
X136711428Y-98004761D01*
X136616190Y-98052380D01*
X136378095Y-98052380D01*
X136282857Y-98004761D01*
X136235238Y-97957142D01*
X137235238Y-97957142D02*
X137282857Y-98004761D01*
X137235238Y-98052380D01*
X137187619Y-98004761D01*
X137235238Y-97957142D01*
X137235238Y-98052380D01*
X138235238Y-98052380D02*
X137663809Y-98052380D01*
X137949523Y-98052380D02*
X137949523Y-97052380D01*
X137854285Y-97195238D01*
X137759047Y-97290476D01*
X137663809Y-97338095D01*
X138663809Y-98052380D02*
X138663809Y-97052380D01*
X138759047Y-97671428D02*
X139044761Y-98052380D01*
X139044761Y-97385714D02*
X138663809Y-97766666D01*
%TO.C,C1*%
X145673333Y-99327142D02*
X145625714Y-99374761D01*
X145482857Y-99422380D01*
X145387619Y-99422380D01*
X145244761Y-99374761D01*
X145149523Y-99279523D01*
X145101904Y-99184285D01*
X145054285Y-98993809D01*
X145054285Y-98850952D01*
X145101904Y-98660476D01*
X145149523Y-98565238D01*
X145244761Y-98470000D01*
X145387619Y-98422380D01*
X145482857Y-98422380D01*
X145625714Y-98470000D01*
X145673333Y-98517619D01*
X146625714Y-99422380D02*
X146054285Y-99422380D01*
X146340000Y-99422380D02*
X146340000Y-98422380D01*
X146244761Y-98565238D01*
X146149523Y-98660476D01*
X146054285Y-98708095D01*
%TO.C,R1*%
X136393333Y-99742380D02*
X136060000Y-99266190D01*
X135821904Y-99742380D02*
X135821904Y-98742380D01*
X136202857Y-98742380D01*
X136298095Y-98790000D01*
X136345714Y-98837619D01*
X136393333Y-98932857D01*
X136393333Y-99075714D01*
X136345714Y-99170952D01*
X136298095Y-99218571D01*
X136202857Y-99266190D01*
X135821904Y-99266190D01*
X137345714Y-99742380D02*
X136774285Y-99742380D01*
X137060000Y-99742380D02*
X137060000Y-98742380D01*
X136964761Y-98885238D01*
X136869523Y-98980476D01*
X136774285Y-99028095D01*
%TO.C,U3*%
X146322380Y-97101904D02*
X147131904Y-97101904D01*
X147227142Y-97054285D01*
X147274761Y-97006666D01*
X147322380Y-96911428D01*
X147322380Y-96720952D01*
X147274761Y-96625714D01*
X147227142Y-96578095D01*
X147131904Y-96530476D01*
X146322380Y-96530476D01*
X146322380Y-96149523D02*
X146322380Y-95530476D01*
X146703333Y-95863809D01*
X146703333Y-95720952D01*
X146750952Y-95625714D01*
X146798571Y-95578095D01*
X146893809Y-95530476D01*
X147131904Y-95530476D01*
X147227142Y-95578095D01*
X147274761Y-95625714D01*
X147322380Y-95720952D01*
X147322380Y-96006666D01*
X147274761Y-96101904D01*
X147227142Y-96149523D01*
%TO.C,R6*%
X151343333Y-102072380D02*
X151010000Y-101596190D01*
X150771904Y-102072380D02*
X150771904Y-101072380D01*
X151152857Y-101072380D01*
X151248095Y-101120000D01*
X151295714Y-101167619D01*
X151343333Y-101262857D01*
X151343333Y-101405714D01*
X151295714Y-101500952D01*
X151248095Y-101548571D01*
X151152857Y-101596190D01*
X150771904Y-101596190D01*
X152200476Y-101072380D02*
X152010000Y-101072380D01*
X151914761Y-101120000D01*
X151867142Y-101167619D01*
X151771904Y-101310476D01*
X151724285Y-101500952D01*
X151724285Y-101881904D01*
X151771904Y-101977142D01*
X151819523Y-102024761D01*
X151914761Y-102072380D01*
X152105238Y-102072380D01*
X152200476Y-102024761D01*
X152248095Y-101977142D01*
X152295714Y-101881904D01*
X152295714Y-101643809D01*
X152248095Y-101548571D01*
X152200476Y-101500952D01*
X152105238Y-101453333D01*
X151914761Y-101453333D01*
X151819523Y-101500952D01*
X151771904Y-101548571D01*
X151724285Y-101643809D01*
%TO.C,C3*%
X139123333Y-88577142D02*
X139075714Y-88624761D01*
X138932857Y-88672380D01*
X138837619Y-88672380D01*
X138694761Y-88624761D01*
X138599523Y-88529523D01*
X138551904Y-88434285D01*
X138504285Y-88243809D01*
X138504285Y-88100952D01*
X138551904Y-87910476D01*
X138599523Y-87815238D01*
X138694761Y-87720000D01*
X138837619Y-87672380D01*
X138932857Y-87672380D01*
X139075714Y-87720000D01*
X139123333Y-87767619D01*
X139456666Y-87672380D02*
X140075714Y-87672380D01*
X139742380Y-88053333D01*
X139885238Y-88053333D01*
X139980476Y-88100952D01*
X140028095Y-88148571D01*
X140075714Y-88243809D01*
X140075714Y-88481904D01*
X140028095Y-88577142D01*
X139980476Y-88624761D01*
X139885238Y-88672380D01*
X139599523Y-88672380D01*
X139504285Y-88624761D01*
X139456666Y-88577142D01*
%TO.C,R7*%
X136729047Y-91052380D02*
X136252857Y-91052380D01*
X136205238Y-91528571D01*
X136252857Y-91480952D01*
X136348095Y-91433333D01*
X136586190Y-91433333D01*
X136681428Y-91480952D01*
X136729047Y-91528571D01*
X136776666Y-91623809D01*
X136776666Y-91861904D01*
X136729047Y-91957142D01*
X136681428Y-92004761D01*
X136586190Y-92052380D01*
X136348095Y-92052380D01*
X136252857Y-92004761D01*
X136205238Y-91957142D01*
X137205238Y-91957142D02*
X137252857Y-92004761D01*
X137205238Y-92052380D01*
X137157619Y-92004761D01*
X137205238Y-91957142D01*
X137205238Y-92052380D01*
X138205238Y-92052380D02*
X137633809Y-92052380D01*
X137919523Y-92052380D02*
X137919523Y-91052380D01*
X137824285Y-91195238D01*
X137729047Y-91290476D01*
X137633809Y-91338095D01*
X138633809Y-92052380D02*
X138633809Y-91052380D01*
X138729047Y-91671428D02*
X139014761Y-92052380D01*
X139014761Y-91385714D02*
X138633809Y-91766666D01*
%TO.C,R3*%
X141333333Y-99602380D02*
X141000000Y-99126190D01*
X140761904Y-99602380D02*
X140761904Y-98602380D01*
X141142857Y-98602380D01*
X141238095Y-98650000D01*
X141285714Y-98697619D01*
X141333333Y-98792857D01*
X141333333Y-98935714D01*
X141285714Y-99030952D01*
X141238095Y-99078571D01*
X141142857Y-99126190D01*
X140761904Y-99126190D01*
X141666666Y-98602380D02*
X142285714Y-98602380D01*
X141952380Y-98983333D01*
X142095238Y-98983333D01*
X142190476Y-99030952D01*
X142238095Y-99078571D01*
X142285714Y-99173809D01*
X142285714Y-99411904D01*
X142238095Y-99507142D01*
X142190476Y-99554761D01*
X142095238Y-99602380D01*
X141809523Y-99602380D01*
X141714285Y-99554761D01*
X141666666Y-99507142D01*
%TO.C,U2*%
X145972380Y-90181904D02*
X146781904Y-90181904D01*
X146877142Y-90134285D01*
X146924761Y-90086666D01*
X146972380Y-89991428D01*
X146972380Y-89800952D01*
X146924761Y-89705714D01*
X146877142Y-89658095D01*
X146781904Y-89610476D01*
X145972380Y-89610476D01*
X146067619Y-89181904D02*
X146020000Y-89134285D01*
X145972380Y-89039047D01*
X145972380Y-88800952D01*
X146020000Y-88705714D01*
X146067619Y-88658095D01*
X146162857Y-88610476D01*
X146258095Y-88610476D01*
X146400952Y-88658095D01*
X146972380Y-89229523D01*
X146972380Y-88610476D01*
D11*
%TO.C,R9*%
X134625121Y-88510000D02*
X134289879Y-88510000D01*
X134625121Y-87750000D02*
X134289879Y-87750000D01*
%TO.C,P1*%
X132605000Y-89900000D02*
X131750000Y-89900000D01*
X128630000Y-99060000D02*
X127680000Y-99060000D01*
X128630000Y-89900000D02*
X127680000Y-89900000D01*
X132605000Y-99060000D02*
X131750000Y-99060000D01*
X127680000Y-89900000D02*
X127680000Y-99060000D01*
%TO.C,R5*%
X151510000Y-87940121D02*
X151510000Y-87604879D01*
X152270000Y-87940121D02*
X152270000Y-87604879D01*
%TO.C,U1*%
X145670000Y-94520000D02*
X145670000Y-96470000D01*
X145670000Y-94520000D02*
X145670000Y-92570000D01*
X140550000Y-94520000D02*
X140550000Y-92570000D01*
X140550000Y-94520000D02*
X140550000Y-97970000D01*
%TO.C,R2*%
X136794879Y-86870000D02*
X137130121Y-86870000D01*
X136794879Y-87630000D02*
X137130121Y-87630000D01*
%TO.C,C2*%
X144190000Y-88526665D02*
X144190000Y-88758335D01*
X143470000Y-88526665D02*
X143470000Y-88758335D01*
%TO.C,R8*%
X137372776Y-95547500D02*
X137882224Y-95547500D01*
X137372776Y-96592500D02*
X137882224Y-96592500D01*
%TO.C,D2*%
X129970000Y-88570000D02*
X132830000Y-88570000D01*
X132830000Y-86650000D02*
X129970000Y-86650000D01*
X132830000Y-88570000D02*
X132830000Y-86650000D01*
%TO.C,C1*%
X146053752Y-99975000D02*
X145531248Y-99975000D01*
X146053752Y-101445000D02*
X145531248Y-101445000D01*
%TO.C,R1*%
X136154879Y-100640000D02*
X136490121Y-100640000D01*
X136154879Y-101400000D02*
X136490121Y-101400000D01*
%TO.C,U3*%
X150920000Y-95693000D02*
X150920000Y-92743000D01*
X147700000Y-93893000D02*
X147700000Y-95693000D01*
%TO.C,R6*%
X149595121Y-101790000D02*
X149259879Y-101790000D01*
X149595121Y-101030000D02*
X149259879Y-101030000D01*
%TO.C,C3*%
X139355835Y-89020000D02*
X139124165Y-89020000D01*
X139355835Y-89740000D02*
X139124165Y-89740000D01*
%TO.C,R7*%
X137315276Y-93542500D02*
X137824724Y-93542500D01*
X137315276Y-92497500D02*
X137824724Y-92497500D01*
%TO.C,D1*%
X129835000Y-102150000D02*
X132695000Y-102150000D01*
X132695000Y-102150000D02*
X132695000Y-100230000D01*
X132695000Y-100230000D02*
X129835000Y-100230000D01*
%TO.C,R3*%
X141782224Y-100107500D02*
X141272776Y-100107500D01*
X141782224Y-101152500D02*
X141272776Y-101152500D01*
%TO.C,U2*%
X150800000Y-90450000D02*
X150800000Y-88650000D01*
X147580000Y-88650000D02*
X147580000Y-91600000D01*
%TD*%
M02*
